<svg xmlns="http://www.w3.org/2000/svg" xmlns:xlink="http://www.w3.org/1999/xlink" width="793" zoomAndPan="magnify" viewBox="0 0 595.5 842.249979" height="1122" preserveAspectRatio="xMidYMid meet" version="1.0"><defs><g/><clipPath id="42e06445b1"><path d="M 0.015625 0 L 594.984375 0 L 594.984375 841.5 L 0.015625 841.5 Z M 0.015625 0 " clip-rule="nonzero"/></clipPath></defs><g clip-path="url(#42e06445b1)"><path fill="#ffffff" d="M 0.015625 0 L 594.984375 0 L 594.984375 841.5 L 0.015625 841.5 Z M 0.015625 0 " fill-opacity="1" fill-rule="nonzero"/><path fill="#ffffff" d="M 0.015625 0 L 594.984375 0 L 594.984375 841.5 L 0.015625 841.5 Z M 0.015625 0 " fill-opacity="1" fill-rule="nonzero"/></g><g fill="#000000" fill-opacity="1"><g transform="translate(4.498105, 246.251685)"><g><path d="M 110.410156 -148.753906 L 7.933594 -148.753906 L 7.933594 -147.433594 L 26.226562 -140.160156 L 26.003906 -7.933594 L 6.832031 -1.324219 L 6.832031 0 L 58.398438 0 L 58.398438 -1.324219 L 39.226562 -7.933594 L 39.226562 -70.960938 L 71.621094 -70.960938 C 85.949219 -70.960938 84.40625 -63.910156 91.457031 -44.074219 L 92.777344 -44.074219 L 92.777344 -101.816406 L 91.457031 -101.816406 C 84.40625 -82.421875 85.949219 -74.929688 71.621094 -74.929688 L 39.226562 -74.929688 L 39.226562 -144.789062 L 83.082031 -144.789062 C 97.628906 -144.789062 97.847656 -144.347656 105.78125 -115.257812 C 106.664062 -111.730469 107.765625 -107.765625 109.085938 -103.136719 L 110.410156 -103.136719 Z M 110.410156 -148.753906 "/></g></g></g><g fill="#000000" fill-opacity="1"><g transform="translate(122.178449, 246.251685)"><g><path d="M 27.988281 -139.058594 C 33.496094 -139.058594 37.90625 -143.464844 37.90625 -149.195312 C 37.90625 -154.484375 33.496094 -159.113281 27.988281 -159.113281 C 22.257812 -159.113281 17.851562 -154.484375 17.851562 -149.195312 C 17.851562 -143.464844 22.257812 -139.058594 27.988281 -139.058594 Z M 22.699219 -6.613281 L 2.863281 -1.324219 L 2.863281 0 L 54.875 0 L 54.875 -1.324219 L 35.039062 -6.613281 L 35.039062 -115.039062 L 2.863281 -115.039062 L 2.863281 -113.714844 L 22.699219 -107.984375 Z M 22.699219 -6.613281 "/></g></g></g><g fill="#000000" fill-opacity="1"><g transform="translate(176.611122, 246.251685)"><g><path d="M 53.109375 2.203125 C 59.503906 2.203125 70.742188 -4.628906 83.523438 -14.324219 L 82.640625 -15.867188 C 76.03125 -11.902344 70.300781 -7.492188 60.605469 -7.492188 C 33.496094 -7.492188 15.425781 -28.429688 15.425781 -64.792969 C 15.425781 -101.59375 33.9375 -108.207031 46.71875 -108.207031 C 62.148438 -108.207031 73.605469 -94.320312 68.976562 -75.589844 L 69.640625 -75.148438 L 83.523438 -89.914062 C 83.523438 -100.492188 74.046875 -117.683594 50.464844 -117.683594 C 41.210938 -117.683594 4.847656 -101.816406 4.847656 -53.550781 C 4.847656 -16.085938 26.664062 2.203125 53.109375 2.203125 Z M 53.109375 2.203125 "/></g></g></g><g fill="#000000" fill-opacity="1"><g transform="translate(261.896317, 246.251685)"><g><path d="M 61.925781 -16.085938 C 52.890625 -7.933594 48.703125 -6.613281 43.855469 -6.613281 C 34.597656 -6.613281 30.632812 -11.238281 30.632812 -20.496094 L 30.632812 -110.851562 C 44.296875 -109.75 57.738281 -107.765625 61.042969 -107.765625 L 61.042969 -115.039062 L 30.632812 -115.039062 L 31.074219 -138.839844 L 30.191406 -138.839844 L 18.511719 -115.039062 L -0.21875 -115.039062 L -0.21875 -113.714844 L 18.292969 -110.851562 L 18.292969 -20.496094 C 18.292969 -5.507812 25.34375 2.203125 36.363281 2.203125 C 40.328125 2.203125 53.550781 -5.730469 62.808594 -14.984375 Z M 61.925781 -16.085938 "/></g></g></g><g fill="#000000" fill-opacity="1"><g transform="translate(325.364351, 246.251685)"><g><path d="M 27.988281 -139.058594 C 33.496094 -139.058594 37.90625 -143.464844 37.90625 -149.195312 C 37.90625 -154.484375 33.496094 -159.113281 27.988281 -159.113281 C 22.257812 -159.113281 17.851562 -154.484375 17.851562 -149.195312 C 17.851562 -143.464844 22.257812 -139.058594 27.988281 -139.058594 Z M 22.699219 -6.613281 L 2.863281 -1.324219 L 2.863281 0 L 54.875 0 L 54.875 -1.324219 L 35.039062 -6.613281 L 35.039062 -115.039062 L 2.863281 -115.039062 L 2.863281 -113.714844 L 22.699219 -107.984375 Z M 22.699219 -6.613281 "/></g></g></g><g fill="#000000" fill-opacity="1"><g transform="translate(379.797043, 246.251685)"><g><path d="M 48.925781 2.203125 C 59.28125 2.203125 90.574219 -13.441406 90.574219 -62.808594 C 90.574219 -100.273438 69.417969 -117.019531 46.5 -117.019531 C 36.140625 -117.019531 4.847656 -101.375 4.847656 -52.007812 C 4.847656 -14.546875 26.003906 2.203125 48.925781 2.203125 Z M 54.433594 -7.933594 C 30.414062 -7.933594 13.441406 -31.515625 13.441406 -65.011719 C 13.441406 -99.390625 30.851562 -106.882812 40.992188 -106.882812 C 65.011719 -106.882812 81.980469 -83.304688 81.980469 -49.804688 C 81.980469 -15.425781 64.570312 -7.933594 54.433594 -7.933594 Z M 54.433594 -7.933594 "/></g></g></g><g fill="#000000" fill-opacity="1"><g transform="translate(475.219484, 246.251685)"><g><path d="M 96.304688 -79.996094 C 96.304688 -109.527344 79.996094 -116.800781 63.46875 -116.800781 C 59.722656 -116.800781 48.484375 -109.96875 36.582031 -96.085938 C 32.617188 -116.359375 29.089844 -117.242188 26.226562 -117.242188 C 19.394531 -117.242188 7.933594 -101.152344 -1.542969 -93.441406 L -0.882812 -92.339844 L 24.902344 -106.664062 L 24.902344 -6.613281 L 5.070312 -1.324219 L 5.070312 0 L 57.078125 0 L 57.078125 -1.324219 L 37.242188 -6.613281 L 37.242188 -91.015625 C 43.414062 -98.949219 51.789062 -106.882812 60.164062 -106.882812 C 72.503906 -106.882812 84.183594 -98.730469 84.183594 -79.996094 L 84.183594 -6.613281 L 64.351562 -1.324219 L 64.351562 0 L 116.359375 0 L 116.359375 -1.324219 L 96.527344 -6.613281 Z M 96.304688 -79.996094 "/></g></g></g></svg>